%TF.GenerationSoftware,KiCad,Pcbnew,8.0.1*%
%TF.CreationDate,2024-04-03T15:49:03+03:00*%
%TF.ProjectId,LowPassFilter_jessipi_20240403,4c6f7750-6173-4734-9669-6c7465725f6a,rev?*%
%TF.SameCoordinates,Original*%
%TF.FileFunction,Copper,L2,Bot*%
%TF.FilePolarity,Positive*%
%FSLAX46Y46*%
G04 Gerber Fmt 4.6, Leading zero omitted, Abs format (unit mm)*
G04 Created by KiCad (PCBNEW 8.0.1) date 2024-04-03 15:49:03*
%MOMM*%
%LPD*%
G01*
G04 APERTURE LIST*
%TA.AperFunction,ComponentPad*%
%ADD10C,1.400000*%
%TD*%
%TA.AperFunction,ComponentPad*%
%ADD11O,1.400000X1.400000*%
%TD*%
%TA.AperFunction,ComponentPad*%
%ADD12R,1.000000X1.000000*%
%TD*%
%TA.AperFunction,ComponentPad*%
%ADD13O,1.000000X1.000000*%
%TD*%
%TA.AperFunction,ComponentPad*%
%ADD14C,1.600000*%
%TD*%
%TA.AperFunction,ComponentPad*%
%ADD15O,1.600000X1.600000*%
%TD*%
%TA.AperFunction,ViaPad*%
%ADD16C,0.600000*%
%TD*%
%TA.AperFunction,Conductor*%
%ADD17C,0.200000*%
%TD*%
G04 APERTURE END LIST*
D10*
%TO.P,R1,1*%
%TO.N,Net-(J1-Pin_1)*%
X73500000Y-56810000D03*
D11*
%TO.P,R1,2*%
%TO.N,Net-(J2-Pin_1)*%
X73500000Y-49190000D03*
%TD*%
D12*
%TO.P,J1,1,Pin_1*%
%TO.N,Net-(J1-Pin_1)*%
X73500000Y-61230000D03*
D13*
%TO.P,J1,2,Pin_2*%
%TO.N,GND*%
X73500000Y-62500000D03*
%TD*%
%TO.P,J2,2,Pin_2*%
%TO.N,GND*%
X78500000Y-50000000D03*
D12*
%TO.P,J2,1,Pin_1*%
%TO.N,Net-(J2-Pin_1)*%
X77230000Y-50000000D03*
%TD*%
D14*
%TO.P,C1,1*%
%TO.N,Net-(J2-Pin_1)*%
X78000000Y-53000000D03*
D15*
%TO.P,C1,2*%
%TO.N,GND*%
X78000000Y-63000000D03*
%TD*%
D16*
%TO.N,GND*%
X80500000Y-62500000D03*
X80500000Y-50500000D03*
%TD*%
D17*
%TO.N,GND*%
X80000000Y-63000000D02*
X80500000Y-62500000D01*
X78000000Y-63000000D02*
X80000000Y-63000000D01*
X80000000Y-50000000D02*
X80500000Y-50500000D01*
X78500000Y-50000000D02*
X80000000Y-50000000D01*
X77500000Y-62500000D02*
X78000000Y-63000000D01*
X73500000Y-62500000D02*
X77500000Y-62500000D01*
%TO.N,Net-(J1-Pin_1)*%
X72000000Y-59000000D02*
X73500000Y-60500000D01*
X72000000Y-58310000D02*
X72000000Y-59000000D01*
X73500000Y-56810000D02*
X72000000Y-58310000D01*
X73500000Y-60500000D02*
X73500000Y-61230000D01*
%TO.N,Net-(J2-Pin_1)*%
X78000000Y-51040000D02*
X78000000Y-53000000D01*
X77230000Y-50270000D02*
X78000000Y-51040000D01*
X77230000Y-50000000D02*
X77230000Y-50270000D01*
X76420000Y-49190000D02*
X77230000Y-50000000D01*
X73500000Y-49190000D02*
X76420000Y-49190000D01*
%TD*%
M02*
